<?xml version="1.0" encoding="UTF-8"?>
<!DOCTYPE svg PUBLIC "-//W3C//DTD SVG 1.1//EN" "http://www.w3.org/Graphics/SVG/1.1/DTD/svg11.dtd">
<!-- Creator: CorelDRAW X7 -->
<svg xmlns="http://www.w3.org/2000/svg" xml:space="preserve" width="5.90551in" height="5.90551in" version="1.1" style="shape-rendering:geometricPrecision; text-rendering:geometricPrecision; image-rendering:optimizeQuality; fill-rule:evenodd; clip-rule:evenodd"
viewBox="0 0 5906 5906"
 xmlns:xlink="http://www.w3.org/1999/xlink">
 <defs>
  <style type="text/css">
   <![CDATA[
    .fil1 {fill:#B0CB1F}
    .fil0 {fill:#95C12B}
    .fil2 {fill:#54AF3A}
   ]]>
  </style>
 </defs>
 <g id="Layer_x0020_1">
  <metadata id="CorelCorpID_0Corel-Layer"/>
  <path class="fil0" d="M1857 3488l0 0 0 0c-209,-244 -336,-560 -336,-907 0,-346 127,-663 336,-907l0 0 0 0c9,-11 15,-25 15,-40 0,-34 -27,-61 -61,-61 -19,0 -36,8 -47,21l-1 1c-227,265 -364,609 -364,986 0,377 137,721 364,986l1 1c11,13 28,21 47,21 34,0 61,-27 61,-61 0,-15 -6,-29 -15,-40z"/>
  <path class="fil1" d="M1200 2581c0,-426 156,-816 413,-1116l0 -1c10,-10 15,-24 15,-39 0,-34 -27,-62 -61,-62 -19,0 -35,9 -46,22l0 0c-277,321 -444,739 -444,1196 0,457 167,874 443,1196l1 0c11,14 27,22 46,22 34,0 61,-28 61,-61 0,-16 -5,-30 -15,-40l0 -1c-257,-299 -413,-689 -413,-1116z"/>
  <path class="fil0" d="M4428 2581c0,-377 -138,-721 -365,-986l-1 -1c-11,-13 -28,-21 -46,-21 -34,0 -61,27 -61,61 0,15 5,29 14,40l0 0c210,244 336,561 336,907 0,347 -126,663 -336,907l0 0c-9,11 -14,25 -14,40 0,34 27,61 61,61 18,0 35,-8 46,-21l1 -1c227,-265 365,-609 365,-986z"/>
  <path class="fil1" d="M4749 2581c0,-457 -167,-875 -443,-1196l0 0c-11,-13 -28,-22 -47,-22 -33,0 -61,28 -61,62 0,15 6,29 15,39l0 1c258,300 414,690 414,1116 0,427 -156,817 -414,1117l0 0 0 0c-9,10 -15,24 -15,40 0,33 28,61 61,61 19,0 36,-8 47,-22l1 0c276,-322 442,-739 442,-1196z"/>
  <path class="fil1" d="M3171 3724c-1027,-194 -879,-1144 -879,-1144l0 -994c-75,47 -145,103 -208,166 -212,212 -343,505 -343,828 0,324 131,617 343,829 212,213 506,344 829,344 89,0 175,-10 258,-29z"/>
  <path class="fil0" d="M2292 2580c0,0 -148,950 879,1144 220,-49 417,-160 571,-315 212,-212 344,-505 344,-829 0,-72 -7,-142 -19,-211 -236,1018 -1178,832 -1178,832 -162,-6 -308,-74 -415,-181 -113,-113 -182,-268 -182,-440z"/>
  <path class="fil2" d="M3535 1586l0 994c0,172 -70,327 -182,440 -113,112 -268,182 -440,182 -8,0 -16,0 -24,-1 0,0 942,186 1178,-832 -44,-239 -160,-453 -325,-617 -62,-63 -132,-119 -207,-166z"/>
  <path class="fil1" d="M3233 1626c-143,800 -640,920 -640,920 0,176 144,320 320,320 176,0 320,-144 320,-320l0 -920z"/>
  <g id="_19428512">
   <path class="fil0" d="M1463 4407l-123 -184c45,-20 79,-67 79,-124 0,-82 -70,-148 -169,-148l-173 0 1 456 121 0 0 -198 122 198 142 0zm-265 -347l50 0c25,0 49,17 49,45 0,28 -23,46 -49,46l-50 0 0 -91zm308 347l121 0 0 -456 -121 0 0 456zm184 0l345 0 0 -114 -154 0 154 -342 -345 0 0 113 154 0 -154 343zm393 0l344 0 0 -114 -154 0 154 -342 -344 0 0 113 154 0 -154 343zm727 6c91,0 172,-54 172,-141 0,-67 -47,-111 -119,-141 -49,-21 -81,-27 -81,-48 0,-16 18,-29 43,-29 21,0 56,11 70,35l70 -67c-18,-45 -72,-78 -142,-78 -86,0 -161,56 -161,135 0,69 49,107 107,132 44,20 91,40 91,64 0,18 -25,28 -51,28 -38,0 -73,-17 -92,-45l-74 72c23,50 92,83 167,83zm667 -466l-195 268 -196 -268 -49 0 0 460 121 0 0 -181 123 173 1 0 123 -173 0 181 121 0 0 -460 -49 0zm443 460l133 0 -212 -462 -58 0 -211 462 132 0 23 -54 170 0 23 54zm-155 -142l47 -108 47 108 -94 0zm719 142l-122 -184c44,-20 79,-67 79,-124 0,-82 -71,-148 -169,-148l-173 0 0 456 121 0 0 -198 122 198 142 0zm-265 -347l50 0c26,0 50,17 50,45 0,28 -24,46 -50,46l-50 0 0 -91zm609 -109l-339 0 0 113 109 0 0 343 121 0 0 -343 109 0 0 -113z"/>
   <path class="fil2" d="M1373 4636l0 -112 -296 0 0 456 296 0 0 -113 -176 0 0 -66 145 0 0 -101 -145 0 0 -64 176 0zm340 -112l0 222 -234 -226 -39 0 0 460 121 0 0 -223 235 228 38 0 0 -461 -121 0zm496 112l0 -112 -296 0 0 456 296 0 0 -113 -176 0 0 -66 145 0 0 -101 -145 0 0 -64 176 0zm453 344l-122 -183c44,-20 78,-68 78,-125 0,-81 -70,-148 -169,-148l-173 0 1 456 121 0 0 -198 122 198 142 0zm-265 -347l50 0c25,0 49,17 49,46 0,28 -23,46 -49,46l-50 -1 0 -91zm773 85l-234 0 0 90 104 0c-1,44 -41,70 -96,70 -84,0 -135,-62 -135,-126 0,-70 59,-126 127,-126 34,0 70,15 96,39l67 -92c-38,-35 -105,-59 -163,-60 -141,0 -251,109 -251,240 0,129 109,237 254,237 130,0 235,-89 235,-227 0,-15 -2,-29 -4,-45zm119 262l121 0 0 -197 140 -259 -137 0 -63 132 -64 -132 -137 0 140 259 0 197z"/>
   <g>
    <path class="fil1" d="M3528 4879c0,0 206,-379 495,-384 -49,-6 -100,-10 -146,-5 -216,23 -368,215 -349,389z"/>
    <path class="fil0" d="M4023 4495c-289,5 -495,384 -495,384 30,-17 92,-127 275,-172 62,-15 122,-19 177,-12 34,4 121,21 143,38 0,0 193,57 360,-224 -83,30 -124,47 -315,10 -42,-8 -93,-18 -145,-24z"/>
    <path class="fil2" d="M4003 4721c-50,0 -90,4 -142,17 -61,15 -205,65 -280,158 27,-2 263,18 298,19 92,2 205,-19 290,-62 87,-43 142,-89 198,-149 35,-37 107,-146 116,-195 -167,281 -360,224 -360,224 -41,-4 -72,-12 -120,-12z"/>
   </g>
  </g>
  <path class="fil0" d="M2593 2546c0,0 497,-120 640,-920l0 -362 0 -349c-143,801 -640,920 -640,920l0 362 0 349z"/>
  <path class="fil2" d="M2593 1835c0,0 497,-119 640,-920 -353,0 -640,287 -640,640l0 0 0 280z"/>
 </g>
</svg>
