<?xml version="1.0" encoding="UTF-8"?>
<!DOCTYPE svg PUBLIC "-//W3C//DTD SVG 1.1//EN" "http://www.w3.org/Graphics/SVG/1.1/DTD/svg11.dtd">
<!-- Creator: CorelDRAW X7 -->
<svg xmlns="http://www.w3.org/2000/svg" xml:space="preserve" width="5.11811in" height="1.35047in" version="1.1" style="shape-rendering:geometricPrecision; text-rendering:geometricPrecision; image-rendering:optimizeQuality; fill-rule:evenodd; clip-rule:evenodd"
viewBox="0 0 5118 1350"
 xmlns:xlink="http://www.w3.org/1999/xlink">
 <defs>
  <style type="text/css">
   <![CDATA[
    .fil1 {fill:#B0CB1F}
    .fil0 {fill:#95C12B}
    .fil2 {fill:#54AF3A}
   ]]>
  </style>
 </defs>
 <g id="Layer_x0020_1">
  <metadata id="CorelCorpID_0Corel-Layer"/>
  <path class="fil0" d="M365 1205l0 0 0 0c-98,-114 -157,-263 -157,-425 0,-162 59,-310 157,-425l0 0 0 0c5,-5 7,-11 7,-18 0,-16 -13,-29 -29,-29 -8,0 -16,4 -21,10l-1 0c-106,124 -171,286 -171,462 0,177 65,338 171,462l1 0c5,7 13,10 21,10 16,0 29,-12 29,-28 0,-7 -2,-14 -7,-19z"/>
  <path class="fil1" d="M57 780c0,-200 73,-382 194,-523l0 0c4,-5 7,-11 7,-18 0,-16 -13,-29 -29,-29 -8,0 -16,4 -21,10l0 0c-130,150 -208,346 -208,560 0,214 78,410 207,560l1 0c5,7 13,10 21,10 16,0 29,-12 29,-28 0,-7 -3,-14 -7,-19l0 0c-121,-140 -194,-323 -194,-523z"/>
  <path class="fil0" d="M1569 780c0,-176 -64,-338 -171,-462l0 0c-5,-6 -13,-10 -22,-10 -16,0 -29,13 -29,29 0,7 3,13 7,18l0 0c99,115 158,263 158,425 0,162 -59,311 -158,425l0 0c-4,5 -7,12 -7,19 0,16 13,28 29,28 9,0 17,-3 22,-10l0 0c107,-124 171,-285 171,-462z"/>
  <path class="fil1" d="M1720 780c0,-214 -79,-410 -208,-560l0 0c-5,-6 -13,-10 -22,-10 -16,0 -28,13 -28,29 0,7 2,13 7,18l0 0c120,141 193,323 193,523 0,200 -73,383 -193,523l0 0 0 0c-5,5 -7,12 -7,19 0,16 12,28 28,28 9,0 17,-3 22,-10l0 0c130,-150 208,-346 208,-560z"/>
  <path class="fil1" d="M980 1316c-481,-92 -411,-536 -411,-536l0 -466c-35,22 -68,48 -97,78 -100,99 -161,236 -161,388 0,152 61,289 161,388 99,100 236,161 388,161 41,0 82,-5 120,-13z"/>
  <path class="fil0" d="M569 780c0,0 -70,444 411,536 104,-23 196,-76 268,-148 99,-99 161,-236 161,-388 0,-34 -3,-67 -9,-99 -110,476 -551,390 -551,390 -76,-3 -145,-35 -195,-85 -53,-53 -85,-126 -85,-206z"/>
  <path class="fil2" d="M1151 314l0 466c0,80 -33,153 -85,206 -53,52 -126,85 -206,85 -4,0 -8,0 -11,0 0,0 441,86 551,-390 -20,-112 -75,-212 -152,-289 -29,-30 -62,-56 -97,-78z"/>
  <path class="fil0" d="M2156 748l-108 -161c40,-18 70,-60 70,-110 0,-72 -62,-131 -149,-131l-152 0 0 402 107 0 0 -175 107 175 125 0zm-233 -306l44 0c22,0 43,16 43,41 0,24 -20,40 -43,40l-44 0 0 -81zm271 306l106 0 0 -402 -106 0 0 402zm162 0l304 0 0 -100 -136 0 136 -302 -304 0 0 100 136 0 -136 302zm346 0l303 0 0 -100 -135 0 135 -302 -303 0 0 100 135 0 -135 302zm639 5c81,0 152,-47 152,-124 0,-59 -42,-97 -104,-124 -44,-18 -72,-24 -72,-42 0,-14 16,-25 38,-25 19,0 50,9 62,30l61 -59c-16,-40 -63,-69 -125,-69 -76,0 -142,50 -142,119 0,61 44,94 95,116 39,18 80,36 80,57 0,16 -22,24 -45,24 -33,0 -65,-15 -81,-39l-65 63c20,44 80,73 146,73zm588 -410l-172 236 -172 -236 -43 0 0 405 106 0 0 -159 109 152 0 0 108 -152 0 159 107 0 0 -405 -43 0zm390 405l117 0 -187 -407 -51 0 -186 407 117 0 20 -47 150 0 20 47zm-136 -125l41 -95 41 95 -82 0zm632 125l-107 -161c39,-18 69,-60 69,-110 0,-72 -62,-131 -149,-131l-152 0 1 402 106 0 0 -175 107 175 125 0zm-233 -306l44 0c22,0 43,16 43,41 0,24 -20,40 -43,40l-44 0 0 -81zm536 -96l-299 0 0 100 97 0 0 302 106 0 0 -302 96 0 0 -100z"/>
  <path class="fil2" d="M2077 950l0 -99 -260 0 0 401 260 0 0 -99 -155 0 0 -58 128 0 0 -89 -128 0 0 -56 155 0zm299 -99l0 195 -206 -199 -34 0 0 405 107 0 0 -196 206 200 34 0 0 -405 -107 0zm437 99l0 -99 -260 0 0 401 260 0 0 -99 -155 0 0 -58 127 0 0 -89 -127 0 0 -56 155 0zm398 302l-107 -161c39,-18 69,-60 69,-109 0,-72 -62,-131 -149,-131l-152 0 1 401 106 0 0 -174 108 174 124 0zm-233 -305l44 0c23,0 44,15 44,40 0,25 -21,41 -44,41l-44 -1 0 -80zm680 75l-205 0 0 79 91 0c-1,38 -36,62 -84,62 -74,0 -119,-55 -119,-111 0,-62 52,-111 112,-111 29,0 62,13 84,34l59 -81c-33,-30 -92,-52 -143,-53 -125,0 -221,97 -221,211 0,114 96,209 224,209 114,0 206,-78 206,-200 0,-13 -2,-26 -4,-39zm106 230l105 0 0 -173 124 -228 -121 0 -55 116 -56 -116 -121 0 124 228 0 173z"/>
  <g id="_322754816">
   <path class="fil1" d="M3974 1164c0,0 181,-334 436,-339 -44,-5 -88,-8 -129,-4 -190,20 -324,189 -307,343z"/>
   <path class="fil0" d="M4410 825c-255,5 -436,339 -436,339 26,-15 80,-112 242,-152 54,-13 107,-17 156,-10 30,3 106,18 125,33 0,0 170,50 317,-197 -72,26 -109,41 -277,9 -37,-7 -82,-16 -127,-22z"/>
   <path class="fil2" d="M4391 1024c-43,0 -78,4 -124,15 -54,14 -181,58 -247,139 24,-1 232,16 263,17 81,2 180,-17 255,-54 76,-39 125,-78 174,-131 31,-34 95,-129 102,-172 -147,247 -317,197 -317,197 -36,-4 -63,-11 -106,-11z"/>
  </g>
  <path class="fil1" d="M1010 333c-67,375 -300,431 -300,431 0,82 67,150 150,150 82,0 150,-68 150,-150l0 -431z"/>
  <path class="fil0" d="M710 764c0,0 233,-56 300,-431l0 -169 0 -164c-67,375 -300,431 -300,431l0 169 0 164z"/>
  <path class="fil2" d="M710 431c0,0 233,-56 300,-431 -166,0 -300,134 -300,300l0 0 0 131z"/>
 </g>
</svg>
